{
  "accessors": [
    {
      "bufferView": 2,
      "componentType": 5126,
      "count": 1400,
      "max": [
        -4.2570037841796875,
        2.298295021057129,
        6.077340126037598
      ],
      "min": [
        -8.775540351867676,
        -1.58113694190979,
        -0.001247999956831336
      ],
      "type": "VEC3"
    },
    {
      "bufferView": 2,
      "byteOffset": 16800,
      "componentType": 5126,
      "count": 1400,
      "max": [
        0.9994522333145142,
        0.9999286532402039,
        0.9987186193466187
      ],
      "min": [
        -0.9994643330574036,
        -0.9983969926834106,
        -0.9982026219367981
      ],
      "type": "VEC3"
    },
    {
      "bufferView": 1,
      "componentType": 5126,
      "count": 1400,
      "max": [
        0.9893329739570618,
        0.9817240238189697
      ],
      "min": [
        0.013402000069618225,
        0.012032000347971916
      ],
      "type": "VEC2"
    },
    {
      "bufferView": 0,
      "componentType": 5125,
      "count": 6228,
      "type": "SCALAR"
    },
    {
      "bufferView": 2,
      "byteOffset": 33600,
      "componentType": 5126,
      "count": 1610,
      "max": [
        -1.7693339586257935,
        0.4649139940738678,
        3.8657209873199463
      ],
      "min": [
        -4.750905990600586,
        -2.4437789916992188,
        0.04606600105762482
      ],
      "type": "VEC3"
    },
    {
      "bufferView": 2,
      "byteOffset": 52920,
      "componentType": 5126,
      "count": 1610,
      "max": [
        0.9990125298500061,
        0.9989787340164185,
        1.0
      ],
      "min": [
        -0.9984628558158875,
        -0.9973039031028748,
        -0.9999989867210388
      ],
      "type": "VEC3"
    },
    {
      "bufferView": 1,
      "byteOffset": 11200,
      "componentType": 5126,
      "count": 1610,
      "max": [
        0.990913987159729,
        0.9820929765701294
      ],
      "min": [
        0.007416000124067068,
        0.007685000076889992
      ],
      "type": "VEC2"
    },
    {
      "bufferView": 0,
      "byteOffset": 24912,
      "componentType": 5125,
      "count": 6831,
      "type": "SCALAR"
    },
    {
      "bufferView": 2,
      "byteOffset": 72240,
      "componentType": 5126,
      "count": 2927,
      "max": [
        1.9073179960250854,
        -1.9373630285263062,
        3.8033440113067627
      ],
      "min": [
        -1.6991729736328125,
        -4.13717794418335,
        -0.0071749999187886715
      ],
      "type": "VEC3"
    },
    {
      "bufferView": 2,
      "byteOffset": 107364,
      "componentType": 5126,
      "count": 2927,
      "max": [
        0.9994496703147888,
        0.9990217685699463,
        0.9990627765655518
      ],
      "min": [
        -0.9994496703147888,
        -0.9999873638153076,
        -0.998849630355835
      ],
      "type": "VEC3"
    },
    {
      "bufferView": 1,
      "byteOffset": 24080,
      "componentType": 5126,
      "count": 2927,
      "max": [
        0.994845986366272,
        0.9851629734039307
      ],
      "min": [
        0.005282999947667122,
        0.007451999932527542
      ],
      "type": "VEC2"
    },
    {
      "bufferView": 0,
      "byteOffset": 52236,
      "componentType": 5125,
      "count": 7848,
      "type": "SCALAR"
    },
    {
      "bufferView": 2,
      "byteOffset": 142488,
      "componentType": 5126,
      "count": 1801,
      "max": [
        3.4783809185028076,
        -0.6975229978561401,
        4.504767894744873
      ],
      "min": [
        0.38885098695755005,
        -2.661755084991455,
        0.03397800028324127
      ],
      "type": "VEC3"
    },
    {
      "bufferView": 2,
      "byteOffset": 164100,
      "componentType": 5126,
      "count": 1801,
      "max": [
        0.9956293702125549,
        0.9993152618408203,
        1.0
      ],
      "min": [
        -0.9989486336708069,
        -0.9999060034751892,
        -1.0
      ],
      "type": "VEC3"
    },
    {
      "bufferView": 1,
      "byteOffset": 47496,
      "componentType": 5126,
      "count": 1801,
      "max": [
        0.9886710047721863,
        0.9934329986572266
      ],
      "min": [
        0.008101999759674072,
        0.00981099996715784
      ],
      "type": "VEC2"
    },
    {
      "bufferView": 0,
      "byteOffset": 83628,
      "componentType": 5125,
      "count": 6171,
      "type": "SCALAR"
    },
    {
      "bufferView": 2,
      "byteOffset": 185712,
      "componentType": 5126,
      "count": 1856,
      "max": [
        5.87922477722168,
        2.1665589809417725,
        4.172611236572266
      ],
      "min": [
        2.5800418853759766,
        -1.1202969551086426,
        -0.002230999991297722
      ],
      "type": "VEC3"
    },
    {
      "bufferView": 2,
      "byteOffset": 207984,
      "componentType": 5126,
      "count": 1856,
      "max": [
        0.9976998567581177,
        0.9991521239280701,
        0.9993452429771423
      ],
      "min": [
        -0.9996786713600159,
        -0.9985719919204712,
        -1.0
      ],
      "type": "VEC3"
    },
    {
      "bufferView": 1,
      "byteOffset": 61904,
      "componentType": 5126,
      "count": 1856,
      "max": [
        0.9987099766731262,
        0.9940760135650635
      ],
      "min": [
        0.010351999662816525,
        0.008895999751985073
      ],
      "type": "VEC2"
    },
    {
      "bufferView": 0,
      "byteOffset": 108312,
      "componentType": 5125,
      "count": 7737,
      "type": "SCALAR"
    }
  ],
  "asset": {
    "extras": {
      "author": "little.bucket (https://sketchfab.com/little.bucket)",
      "license": "CC-BY-NC-SA-4.0 (http://creativecommons.org/licenses/by-nc-sa/4.0/)",
      "source": "https://sketchfab.com/3d-models/animal-ninja-60bf79c6ed5841bfa548ce7508c7ebd3",
      "title": "Animal Ninja"
    },
    "generator": "Sketchfab-12.63.0",
    "version": "2.0"
  },
  "bufferViews": [
    {
      "buffer": 0,
      "byteLength": 139260,
      "name": "floatBufferViews",
      "target": 34963
    },
    {
      "buffer": 0,
      "byteLength": 76752,
      "byteOffset": 139260,
      "byteStride": 8,
      "name": "floatBufferViews",
      "target": 34962
    },
    {
      "buffer": 0,
      "byteLength": 230256,
      "byteOffset": 216012,
      "byteStride": 12,
      "name": "floatBufferViews",
      "target": 34962
    }
  ],
  "buffers": [
    {
      "byteLength": 446268,
      "uri": "scene.bin"
    }
  ],
  "extensionsUsed": [
    "KHR_materials_unlit"
  ],
  "images": [
    {
      "uri": "textures/lambert2SG_baseColor.png"
    },
    {
      "uri": "textures/lambert3SG_baseColor.jpeg"
    },
    {
      "uri": "textures/lambert4SG_baseColor.png"
    },
    {
      "uri": "textures/lambert5SG_baseColor.png"
    },
    {
      "uri": "textures/lambert6SG_baseColor.png"
    }
  ],
  "materials": [
    {
      "doubleSided": true,
      "extensions": {
        "KHR_materials_unlit": {}
      },
      "name": "lambert2SG",
      "pbrMetallicRoughness": {
        "baseColorTexture": {
          "index": 0
        },
        "metallicFactor": 0.0
      }
    },
    {
      "doubleSided": true,
      "extensions": {
        "KHR_materials_unlit": {}
      },
      "name": "lambert3SG",
      "pbrMetallicRoughness": {
        "baseColorTexture": {
          "index": 1
        },
        "metallicFactor": 0.0
      }
    },
    {
      "doubleSided": true,
      "extensions": {
        "KHR_materials_unlit": {}
      },
      "name": "lambert4SG",
      "pbrMetallicRoughness": {
        "baseColorTexture": {
          "index": 2
        },
        "metallicFactor": 0.0
      }
    },
    {
      "doubleSided": true,
      "extensions": {
        "KHR_materials_unlit": {}
      },
      "name": "lambert5SG",
      "pbrMetallicRoughness": {
        "baseColorTexture": {
          "index": 3
        },
        "metallicFactor": 0.0
      }
    },
    {
      "doubleSided": true,
      "extensions": {
        "KHR_materials_unlit": {}
      },
      "name": "lambert6SG",
      "pbrMetallicRoughness": {
        "baseColorTexture": {
          "index": 4
        },
        "metallicFactor": 0.0
      }
    }
  ],
  "meshes": [
    {
      "name": "Object_0",
      "primitives": [
        {
          "attributes": {
            "NORMAL": 1,
            "POSITION": 0,
            "TEXCOORD_0": 2
          },
          "indices": 3,
          "material": 0,
          "mode": 4
        }
      ]
    },
    {
      "name": "Object_1",
      "primitives": [
        {
          "attributes": {
            "NORMAL": 5,
            "POSITION": 4,
            "TEXCOORD_0": 6
          },
          "indices": 7,
          "material": 1,
          "mode": 4
        }
      ]
    },
    {
      "name": "Object_2",
      "primitives": [
        {
          "attributes": {
            "NORMAL": 9,
            "POSITION": 8,
            "TEXCOORD_0": 10
          },
          "indices": 11,
          "material": 2,
          "mode": 4
        }
      ]
    },
    {
      "name": "Object_3",
      "primitives": [
        {
          "attributes": {
            "NORMAL": 13,
            "POSITION": 12,
            "TEXCOORD_0": 14
          },
          "indices": 15,
          "material": 3,
          "mode": 4
        }
      ]
    },
    {
      "name": "Object_4",
      "primitives": [
        {
          "attributes": {
            "NORMAL": 17,
            "POSITION": 16,
            "TEXCOORD_0": 18
          },
          "indices": 19,
          "material": 4,
          "mode": 4
        }
      ]
    }
  ],
  "nodes": [
    {
      "children": [
        1
      ],
      "matrix": [
        1.0,
        0.0,
        0.0,
        0.0,
        0.0,
        2.220446049250313e-16,
        -1.0,
        0.0,
        0.0,
        1.0,
        2.220446049250313e-16,
        0.0,
        0.0,
        0.0,
        0.0,
        1.0
      ],
      "name": "Sketchfab_model"
    },
    {
      "children": [
        2,
        3,
        4,
        5,
        6
      ],
      "name": "animal ninja.obj.cleaner.materialmerger.gles"
    },
    {
      "mesh": 0,
      "name": "Object_2"
    },
    {
      "mesh": 1,
      "name": "Object_3"
    },
    {
      "mesh": 2,
      "name": "Object_4"
    },
    {
      "mesh": 3,
      "name": "Object_5"
    },
    {
      "mesh": 4,
      "name": "Object_6"
    }
  ],
  "samplers": [
    {
      "magFilter": 9729,
      "minFilter": 9987,
      "wrapS": 10497,
      "wrapT": 10497
    }
  ],
  "scene": 0,
  "scenes": [
    {
      "name": "Sketchfab_Scene",
      "nodes": [
        0
      ]
    }
  ],
  "textures": [
    {
      "sampler": 0,
      "source": 0
    },
    {
      "sampler": 0,
      "source": 1
    },
    {
      "sampler": 0,
      "source": 2
    },
    {
      "sampler": 0,
      "source": 3
    },
    {
      "sampler": 0,
      "source": 4
    }
  ]
}
