{
  "accessors": [
    {
      "bufferView": 1,
      "componentType": 5126,
      "count": 198,
      "max": [
        2.9277501106262207,
        3.7503299713134766,
        0.25130000710487366
      ],
      "min": [
        -2.9277501106262207,
        0.2185399979352951,
        -0.0072699999436736107
      ],
      "type": "VEC3"
    },
    {
      "bufferView": 1,
      "byteOffset": 2376,
      "componentType": 5126,
      "count": 198,
      "max": [
        0.9169507622718811,
        0.9175376296043396,
        0.78562831878662109
      ],
      "min": [
        -0.9169507622718811,
        -0.9175376296043396,
        -1
      ],
      "type": "VEC3"
    },
    {
      "bufferView": 0,
      "componentType": 5125,
      "count": 456,
      "max": [
        197
      ],
      "min": [
        0
      ],
      "type": "SCALAR"
    },
    {
      "bufferView": 1,
      "byteOffset": 4752,
      "componentType": 5126,
      "count": 25,
      "max": [
        2.7976400852203369,
        3.6403501033782959,
        0.1847199946641922
      ],
      "min": [
        -2.7976400852203369,
        0.32850998640060425,
        0.1847199946641922
      ],
      "type": "VEC3"
    },
    {
      "bufferView": 1,
      "byteOffset": 5052,
      "componentType": 5126,
      "count": 25,
      "max": [
        0,
        0,
        1
      ],
      "min": [
        0,
        0,
        1
      ],
      "type": "VEC3"
    },
    {
      "bufferView": 0,
      "byteOffset": 1824,
      "componentType": 5125,
      "count": 96,
      "max": [
        24
      ],
      "min": [
        0
      ],
      "type": "SCALAR"
    },
    {
      "bufferView": 1,
      "byteOffset": 5352,
      "componentType": 5126,
      "count": 1101,
      "max": [
        2.1562299728393555,
        0.47104001045227051,
        0.3425300121307373
      ],
      "min": [
        -2.1562299728393555,
        0.0032699999865144491,
        -0.4366300106048584
      ],
      "type": "VEC3"
    },
    {
      "bufferView": 1,
      "byteOffset": 18564,
      "componentType": 5126,
      "count": 1101,
      "max": [
        1,
        0.99830669164657593,
        0.99919414520263672
      ],
      "min": [
        -0.98027247190475464,
        -1,
        -0.99919331073760986
      ],
      "type": "VEC3"
    },
    {
      "bufferView": 0,
      "byteOffset": 2208,
      "componentType": 5125,
      "count": 1743,
      "max": [
        1100
      ],
      "min": [
        0
      ],
      "type": "SCALAR"
    }
  ],
  "asset": {
    "extras": {
      "author": "Algirdas Lalys (https://sketchfab.com/alalys)",
      "license": "CC-BY-4.0 (http://creativecommons.org/licenses/by/4.0/)",
      "source": "https://sketchfab.com/3d-models/tv-928c4eb3c875463bbde6fda85b7d8b3a",
      "title": "Tv"
    },
    "generator": "Sketchfab-6.30.0",
    "version": "2.0"
  },
  "bufferViews": [
    {
      "buffer": 0,
      "byteLength": 9180,
      "byteOffset": 0,
      "name": "floatBufferViews",
      "target": 34963
    },
    {
      "buffer": 0,
      "byteLength": 31776,
      "byteOffset": 9180,
      "byteStride": 12,
      "name": "floatBufferViews",
      "target": 34962
    }
  ],
  "buffers": [
    {
      "byteLength": 40956,
      "uri": "scene.bin"
    }
  ],
  "materials": [
    {
      "doubleSided": true,
      "emissiveFactor": [
        0,
        0,
        0
      ],
      "name": "Tv1_Material",
      "pbrMetallicRoughness": {
        "baseColorFactor": [
          0.10722139477729797,
          0.10722139477729797,
          0.10722139477729797,
          1
        ],
        "metallicFactor": 0,
        "roughnessFactor": 0.59999999999999998
      }
    },
    {
      "doubleSided": true,
      "emissiveFactor": [
        0,
        0,
        0
      ],
      "name": "Tv1_Glass_Material",
      "pbrMetallicRoughness": {
        "baseColorFactor": [
          0.13679081201553345,
          0.13679081201553345,
          0.13679081201553345,
          1
        ],
        "metallicFactor": 0,
        "roughnessFactor": 0.59999999999999998
      }
    },
    {
      "doubleSided": true,
      "emissiveFactor": [
        0,
        0,
        0
      ],
      "name": "Tv1_Stand_Material",
      "pbrMetallicRoughness": {
        "baseColorFactor": [
          0.80000001192092896,
          0.80000001192092896,
          0.80000001192092896,
          1
        ],
        "metallicFactor": 0,
        "roughnessFactor": 0.59999999999999998
      }
    }
  ],
  "meshes": [
    {
      "name": "Tv1_0",
      "primitives": [
        {
          "attributes": {
            "NORMAL": 1,
            "POSITION": 0
          },
          "indices": 2,
          "material": 0,
          "mode": 4
        }
      ]
    },
    {
      "name": "Tv1_1",
      "primitives": [
        {
          "attributes": {
            "NORMAL": 4,
            "POSITION": 3
          },
          "indices": 5,
          "material": 1,
          "mode": 4
        }
      ]
    },
    {
      "name": "Tv1_2",
      "primitives": [
        {
          "attributes": {
            "NORMAL": 7,
            "POSITION": 6
          },
          "indices": 8,
          "material": 2,
          "mode": 4
        }
      ]
    }
  ],
  "nodes": [
    {
      "children": [
        1
      ],
      "name": "RootNode (gltf orientation matrix)",
      "rotation": [
        -0.70710678118654746,
        -0,
        -0,
        0.70710678118654757
      ]
    },
    {
      "children": [
        2
      ],
      "name": "RootNode (model correction matrix)"
    },
    {
      "children": [
        3
      ],
      "name": "Root"
    },
    {
      "children": [
        4,
        5,
        6
      ],
      "matrix": [
        0.22500000000000003,
        0,
        0,
        0,
        0,
        0,
        0.22500000000000003,
        0,
        0,
        -0.22500000000000003,
        0,
        0,
        0,
        0,
        0,
        1
      ],
      "name": "Tv1"
    },
    {
      "mesh": 0,
      "name": "Tv1_0"
    },
    {
      "mesh": 1,
      "name": "Tv1_1"
    },
    {
      "mesh": 2,
      "name": "Tv1_2"
    }
  ],
  "scene": 0,
  "scenes": [
    {
      "name": "OSG_Scene",
      "nodes": [
        0
      ]
    }
  ]
}

