{
  "accessors": [
    {
      "bufferView": 2,
      "componentType": 5126,
      "count": 9090,
      "max": [
        284.8706970214844,
        128.46653747558594,
        248.65086364746094
      ],
      "min": [
        76.84112548828125,
        -0.43335914611816406,
        -86.88457489013672
      ],
      "type": "VEC3"
    },
    {
      "bufferView": 2,
      "byteOffset": 109080,
      "componentType": 5126,
      "count": 9090,
      "max": [
        0.9999935626983643,
        0.9999995231628418,
        0.9999938011169434
      ],
      "min": [
        -0.9999927282333374,
        -0.9999999403953552,
        -0.9999903440475464
      ],
      "type": "VEC3"
    },
    {
      "bufferView": 3,
      "componentType": 5126,
      "count": 9090,
      "max": [
        0.9999872446060181,
        1.0,
        0.9999982118606567,
        1.0
      ],
      "min": [
        -0.9999998807907104,
        -1.0,
        -0.9999904036521912,
        1.0
      ],
      "type": "VEC4"
    },
    {
      "bufferView": 1,
      "componentType": 5126,
      "count": 9090,
      "max": [
        0.9907761812210083,
        0.9764240980148315
      ],
      "min": [
        0.0082625150680542,
        0.00979924201965332
      ],
      "type": "VEC2"
    },
    {
      "bufferView": 0,
      "componentType": 5125,
      "count": 44472,
      "type": "SCALAR"
    }
  ],
  "asset": {
    "extras": {
      "author": "Mohamed199 (https://sketchfab.com/Mohamed199)",
      "license": "CC-BY-4.0 (http://creativecommons.org/licenses/by/4.0/)",
      "source": "https://sketchfab.com/3d-models/lowpoly-bed-6eb4212e70b941a3bd2db196a47828b9",
      "title": "Lowpoly Bed"
    },
    "generator": "Sketchfab-12.67.0",
    "version": "2.0"
  },
  "bufferViews": [
    {
      "buffer": 0,
      "byteLength": 177888,
      "name": "floatBufferViews",
      "target": 34963
    },
    {
      "buffer": 0,
      "byteLength": 72720,
      "byteOffset": 177888,
      "byteStride": 8,
      "name": "floatBufferViews",
      "target": 34962
    },
    {
      "buffer": 0,
      "byteLength": 218160,
      "byteOffset": 250608,
      "byteStride": 12,
      "name": "floatBufferViews",
      "target": 34962
    },
    {
      "buffer": 0,
      "byteLength": 145440,
      "byteOffset": 468768,
      "byteStride": 16,
      "name": "floatBufferViews",
      "target": 34962
    }
  ],
  "buffers": [
    {
      "byteLength": 614208,
      "uri": "scene.bin"
    }
  ],
  "images": [
    {
      "uri": "textures/material_baseColor.png"
    },
    {
      "uri": "textures/material_metallicRoughness.png"
    },
    {
      "uri": "textures/material_normal.png"
    }
  ],
  "materials": [
    {
      "doubleSided": true,
      "name": "material",
      "normalTexture": {
        "index": 2
      },
      "occlusionTexture": {
        "index": 1
      },
      "pbrMetallicRoughness": {
        "baseColorTexture": {
          "index": 0
        },
        "metallicRoughnessTexture": {
          "index": 1
        }
      }
    }
  ],
  "meshes": [
    {
      "name": "polySurface665_Bed_0",
      "primitives": [
        {
          "attributes": {
            "NORMAL": 1,
            "POSITION": 0,
            "TANGENT": 2,
            "TEXCOORD_0": 3
          },
          "indices": 4,
          "material": 0,
          "mode": 4
        }
      ]
    }
  ],
  "nodes": [
    {
      "children": [
        1
      ],
      "matrix": [
        -0.00015359383542090654,
        0.00078104902058862,
        -0.9999997019767761,
        0.0,
        -1.0,
        9.50811200577589e-16,
        0.00015359387907665223,
        0.0,
        1.1996435489436408e-07,
        0.9999997019767761,
        0.00078104902058862,
        0.0,
        100.00119018554688,
        -0.14123776555067152,
        261.7006530761719,
        1.0
      ],
      "name": "Sketchfab_model"
    },
    {
      "children": [
        2
      ],
      "matrix": [
        1.0,
        0.0,
        0.0,
        0.0,
        0.0,
        0.0,
        1.0,
        0.0,
        0.0,
        -1.0,
        0.0,
        0.0,
        0.0,
        0.0,
        0.0,
        1.0
      ],
      "name": "Bed Model.fbx"
    },
    {
      "children": [
        3
      ],
      "name": "RootNode"
    },
    {
      "children": [
        4
      ],
      "name": "polySurface665"
    },
    {
      "mesh": 0,
      "name": "polySurface665_Bed_0"
    }
  ],
  "samplers": [
    {
      "magFilter": 9729,
      "minFilter": 9987,
      "wrapS": 10497,
      "wrapT": 10497
    }
  ],
  "scene": 0,
  "scenes": [
    {
      "name": "Sketchfab_Scene",
      "nodes": [
        0
      ]
    }
  ],
  "textures": [
    {
      "sampler": 0,
      "source": 0
    },
    {
      "sampler": 0,
      "source": 1
    },
    {
      "sampler": 0,
      "source": 2
    }
  ]
}
