{"asset":{"generator":"3D Builder","version":"2.0"},"scene":0,"scenes":[{"nodes":[0]}],"nodes":[{"children":[1,2,3,4,5,6,7,8,9,10,11,12,13,14,15,16,17,18,19,20]},{"mesh":0,"matrix":[1,0,0,0,0,-1.1920928955078125E-7,-0.99999988079071045,0,0,0.99999988079071045,-1.1920928955078125E-7,0,0.075033791363239288,0.88376301527023315,3.5750317573547363,1]},{"mesh":1,"matrix":[1,0,0,0,0,-1.1920928955078125E-7,-0.99999988079071045,0,0,0.99999988079071045,-1.1920928955078125E-7,0,0.075033791363239288,0.88376301527023315,3.5750317573547363,1]},{"mesh":2,"matrix":[1,0,0,0,0,-1.1920928955078125E-7,-0.99999988079071045,0,0,0.99999988079071045,-1.1920928955078125E-7,0,0.075033791363239288,0.88376301527023315,3.5750317573547363,1]},{"mesh":3,"matrix":[1,0,0,0,0,-1.1920928955078125E-7,-0.99999988079071045,0,0,0.99999988079071045,-1.1920928955078125E-7,0,0.075033791363239288,0.88376301527023315,3.5750317573547363,1]},{"mesh":4,"matrix":[1,0,0,0,0,-1.1920928955078125E-7,-0.99999988079071045,0,0,0.99999988079071045,-1.1920928955078125E-7,0,0.075033791363239288,0.88376301527023315,3.5750317573547363,1]},{"mesh":5,"matrix":[1,0,0,0,0,-1.1920928955078125E-7,-0.99999988079071045,0,0,0.99999988079071045,-1.1920928955078125E-7,0,0.075033791363239288,0.88376301527023315,3.5750317573547363,1]},{"mesh":6,"matrix":[1,0,0,0,0,-1.1920928955078125E-7,-0.99999988079071045,0,0,0.99999988079071045,-1.1920928955078125E-7,0,0.075033791363239288,0.88376301527023315,3.5750317573547363,1]},{"mesh":7,"matrix":[1,0,0,0,0,-1.1920928955078125E-7,-0.99999988079071045,0,0,0.99999988079071045,-1.1920928955078125E-7,0,0.075033791363239288,0.88376301527023315,3.5750317573547363,1]},{"mesh":8,"matrix":[1,0,0,0,0,-1.1920928955078125E-7,-0.99999988079071045,0,0,0.99999988079071045,-1.1920928955078125E-7,0,0.075033791363239288,0.88376301527023315,3.5750317573547363,1]},{"mesh":9,"matrix":[1,0,0,0,0,-1.1920928955078125E-7,-0.99999988079071045,0,0,0.99999988079071045,-1.1920928955078125E-7,0,0.075033791363239288,0.88376301527023315,3.5750317573547363,1]},{"mesh":10,"matrix":[1,0,0,0,0,-1.1920928955078125E-7,-0.99999988079071045,0,0,0.99999988079071045,-1.1920928955078125E-7,0,0.075033791363239288,0.88376301527023315,3.5750317573547363,1]},{"mesh":11,"matrix":[1,0,0,0,0,-1.1920928955078125E-7,-0.99999988079071045,0,0,0.99999988079071045,-1.1920928955078125E-7,0,0.075033791363239288,0.88376301527023315,3.5750317573547363,1]},{"mesh":12,"matrix":[1,0,0,0,0,-1.1920928955078125E-7,-0.99999988079071045,0,0,0.99999988079071045,-1.1920928955078125E-7,0,0.075033791363239288,0.88376301527023315,3.5750317573547363,1]},{"mesh":13,"matrix":[1,0,0,0,0,-1.1920928955078125E-7,-0.99999988079071045,0,0,0.99999988079071045,-1.1920928955078125E-7,0,0.075033791363239288,0.88376301527023315,3.5750317573547363,1]},{"mesh":14,"matrix":[1,0,0,0,0,-1.1920928955078125E-7,-0.99999988079071045,0,0,0.99999988079071045,-1.1920928955078125E-7,0,0.075033791363239288,0.88376301527023315,3.5750317573547363,1]},{"mesh":15,"matrix":[1,0,0,0,0,-1.1920928955078125E-7,-0.99999988079071045,0,0,0.99999988079071045,-1.1920928955078125E-7,0,0.075033791363239288,0.88376301527023315,3.5750317573547363,1]},{"mesh":16,"matrix":[1,0,0,0,0,-1.1920928955078125E-7,-0.99999988079071045,0,0,0.99999988079071045,-1.1920928955078125E-7,0,0.075033791363239288,0.88376301527023315,3.5750317573547363,1]},{"mesh":17,"matrix":[1,0,0,0,0,-1.1920928955078125E-7,-0.99999988079071045,0,0,0.99999988079071045,-1.1920928955078125E-7,0,0.075033791363239288,0.88376301527023315,3.5750317573547363,1]},{"mesh":18,"matrix":[1,0,0,0,0,-1.1920928955078125E-7,-0.99999988079071045,0,0,0.99999988079071045,-1.1920928955078125E-7,0,0.075033791363239288,0.88376301527023315,3.5750317573547363,1]},{"mesh":19,"matrix":[1,0,0,0,0,-1.1920928955078125E-7,-0.99999988079071045,0,0,0.99999988079071045,-1.1920928955078125E-7,0,0.075033791363239288,0.88376301527023315,3.5750317573547363,1]}],"meshes":[{"primitives":[{"attributes":{"POSITION":0,"TEXCOORD_0":1},"mode":4,"indices":2,"material":0}]},{"primitives":[{"attributes":{"POSITION":3,"TEXCOORD_0":4},"mode":4,"indices":5,"material":0}]},{"primitives":[{"attributes":{"POSITION":6,"TEXCOORD_0":7},"mode":4,"indices":8,"material":0}]},{"primitives":[{"attributes":{"POSITION":9,"TEXCOORD_0":10},"mode":4,"indices":11,"material":0}]},{"primitives":[{"attributes":{"POSITION":12,"TEXCOORD_0":13},"mode":4,"indices":14,"material":0}]},{"primitives":[{"attributes":{"POSITION":15,"TEXCOORD_0":16},"mode":4,"indices":17,"material":0}]},{"primitives":[{"attributes":{"POSITION":18,"TEXCOORD_0":19},"mode":4,"indices":20,"material":0}]},{"primitives":[{"attributes":{"POSITION":21,"TEXCOORD_0":22},"mode":4,"indices":23,"material":0}]},{"primitives":[{"attributes":{"POSITION":24,"TEXCOORD_0":25},"mode":4,"indices":26,"material":0}]},{"primitives":[{"attributes":{"POSITION":27,"TEXCOORD_0":28},"mode":4,"indices":29,"material":0}]},{"primitives":[{"attributes":{"POSITION":30,"TEXCOORD_0":31},"mode":4,"indices":32,"material":0}]},{"primitives":[{"attributes":{"POSITION":33,"TEXCOORD_0":34},"mode":4,"indices":35,"material":0}]},{"primitives":[{"attributes":{"POSITION":36,"TEXCOORD_0":37},"mode":4,"indices":38,"material":0}]},{"primitives":[{"attributes":{"POSITION":39,"TEXCOORD_0":40},"mode":4,"indices":41,"material":0}]},{"primitives":[{"attributes":{"POSITION":42,"TEXCOORD_0":43},"mode":4,"indices":44,"material":0}]},{"primitives":[{"attributes":{"POSITION":45,"TEXCOORD_0":46},"mode":4,"indices":47,"material":0}]},{"primitives":[{"attributes":{"POSITION":48,"TEXCOORD_0":49},"mode":4,"indices":50,"material":0}]},{"primitives":[{"attributes":{"POSITION":51,"TEXCOORD_0":52},"mode":4,"indices":53,"material":0}]},{"primitives":[{"attributes":{"POSITION":54,"TEXCOORD_0":55},"mode":4,"indices":56,"material":0}]},{"primitives":[{"attributes":{"POSITION":57,"TEXCOORD_0":58},"mode":4,"indices":59,"material":0}]}],"materials":[{"pbrMetallicRoughness":{"baseColorFactor":[1,1,1,1],"metallicFactor":0,"roughnessFactor":0.60000002384185791,"baseColorTexture":{"index":0,"texCoord":0},"metallicRoughnessTexture":{"index":1,"texCoord":0}},"alphaMode":"OPAQUE"}],"textures":[{"source":0,"sampler":0},{"source":1,"sampler":0}],"images":[{"uri":"Colors_baseColor.png"},{"uri":"Colors_metallicRoughness_10852638490067281019.png"}],"samplers":[{"magFilter":9729,"wrapS":10497,"wrapT":10497}],"accessors":[{"bufferView":0,"byteOffset":0,"count":78,"componentType":5126,"type":"VEC3","min":[-1.9000344276428223,1.7500325441360474,2.6100935935974121],"max":[1.7499654293060303,5.4000320434570312,5.3600935935974121]},{"bufferView":1,"byteOffset":0,"count":78,"componentType":5126,"type":"VEC2"},{"bufferView":2,"byteOffset":0,"count":312,"componentType":5125,"type":"SCALAR"},{"bufferView":3,"byteOffset":0,"count":8,"componentType":5126,"type":"VEC3","min":[0.61996537446975708,1.7500333786010742,2.7600934505462646],"max":[1.0799655914306641,5.2500319480896,2.8100943565368652]},{"bufferView":4,"byteOffset":0,"count":8,"componentType":5126,"type":"VEC2"},{"bufferView":5,"byteOffset":0,"count":36,"componentType":5125,"type":"SCALAR"},{"bufferView":6,"byteOffset":0,"count":8,"componentType":5126,"type":"VEC3","min":[-1.3800344467163086,1.7500333786010742,2.7600934505462646],"max":[-0.92003428936004639,5.2500319480896,2.8100943565368652]},{"bufferView":7,"byteOffset":0,"count":8,"componentType":5126,"type":"VEC2"},{"bufferView":8,"byteOffset":0,"count":36,"componentType":5125,"type":"SCALAR"},{"bufferView":9,"byteOffset":0,"count":8,"componentType":5126,"type":"VEC3","min":[1.1199653148651123,1.7500333786010742,2.7600934505462646],"max":[1.5999653339385986,5.2500319480896,2.8100943565368652]},{"bufferView":10,"byteOffset":0,"count":8,"componentType":5126,"type":"VEC2"},{"bufferView":11,"byteOffset":0,"count":36,"componentType":5125,"type":"SCALAR"},{"bufferView":12,"byteOffset":0,"count":8,"componentType":5126,"type":"VEC3","min":[-0.88003444671630859,1.7500333786010742,2.7600934505462646],"max":[-0.42003428936004639,5.2500319480896,2.8100943565368652]},{"bufferView":13,"byteOffset":0,"count":8,"componentType":5126,"type":"VEC2"},{"bufferView":14,"byteOffset":0,"count":36,"componentType":5125,"type":"SCALAR"},{"bufferView":15,"byteOffset":0,"count":8,"componentType":5126,"type":"VEC3","min":[-0.38003450632095337,1.7500333786010742,2.7600934505462646],"max":[0.079965651035308838,5.2500319480896,2.8100943565368652]},{"bufferView":16,"byteOffset":0,"count":8,"componentType":5126,"type":"VEC2"},{"bufferView":17,"byteOffset":0,"count":36,"componentType":5125,"type":"SCALAR"},{"bufferView":18,"byteOffset":0,"count":8,"componentType":5126,"type":"VEC3","min":[0.11996543407440186,1.7500333786010742,2.7600934505462646],"max":[0.57996559143066406,5.2500319480896,2.8100943565368652]},{"bufferView":19,"byteOffset":0,"count":8,"componentType":5126,"type":"VEC2"},{"bufferView":20,"byteOffset":0,"count":36,"componentType":5125,"type":"SCALAR"},{"bufferView":21,"byteOffset":0,"count":8,"componentType":5126,"type":"VEC3","min":[-1.9000344276428223,1.7500333786010742,2.7600934505462646],"max":[-1.4200341701507568,5.2500319480896,2.8100943565368652]},{"bufferView":22,"byteOffset":0,"count":8,"componentType":5126,"type":"VEC2"},{"bufferView":23,"byteOffset":0,"count":36,"componentType":5125,"type":"SCALAR"},{"bufferView":24,"byteOffset":0,"count":8,"componentType":5126,"type":"VEC3","min":[-1.4000344276428223,5.0267066955566406,4.1888923645019531],"max":[0.099965512752532959,5.12335729598999,4.3312959671020508]},{"bufferView":25,"byteOffset":0,"count":8,"componentType":5126,"type":"VEC2"},{"bufferView":26,"byteOffset":0,"count":36,"componentType":5125,"type":"SCALAR"},{"bufferView":27,"byteOffset":0,"count":8,"componentType":5126,"type":"VEC3","min":[-1.4000344276428223,5.0267066955566406,4.0888919830322266],"max":[0.099965512752532959,5.12335729598999,4.2312955856323242]},{"bufferView":28,"byteOffset":0,"count":8,"componentType":5126,"type":"VEC2"},{"bufferView":29,"byteOffset":0,"count":36,"componentType":5125,"type":"SCALAR"},{"bufferView":30,"byteOffset":0,"count":8,"componentType":5126,"type":"VEC3","min":[-1.4000344276428223,5.0267066955566406,3.9888920783996582],"max":[0.099965512752532959,5.12335729598999,4.1312952041625977]},{"bufferView":31,"byteOffset":0,"count":8,"componentType":5126,"type":"VEC2"},{"bufferView":32,"byteOffset":0,"count":36,"componentType":5125,"type":"SCALAR"},{"bufferView":33,"byteOffset":0,"count":8,"componentType":5126,"type":"VEC3","min":[-1.4000344276428223,5.0267071723937988,3.888892650604248],"max":[0.099965512752532959,5.12335729598999,4.0312957763671875]},{"bufferView":34,"byteOffset":0,"count":8,"componentType":5126,"type":"VEC2"},{"bufferView":35,"byteOffset":0,"count":36,"componentType":5125,"type":"SCALAR"},{"bufferView":36,"byteOffset":0,"count":8,"componentType":5126,"type":"VEC3","min":[-1.4000344276428223,5.0267071723937988,3.7888922691345215],"max":[0.099965512752532959,5.12335729598999,3.9312958717346191]},{"bufferView":37,"byteOffset":0,"count":8,"componentType":5126,"type":"VEC2"},{"bufferView":38,"byteOffset":0,"count":36,"componentType":5125,"type":"SCALAR"},{"bufferView":39,"byteOffset":0,"count":8,"componentType":5126,"type":"VEC3","min":[-1.4000344276428223,5.0267062187194824,4.5888915061950684],"max":[0.099965512752532959,5.123356819152832,4.731295108795166]},{"bufferView":40,"byteOffset":0,"count":8,"componentType":5126,"type":"VEC2"},{"bufferView":41,"byteOffset":0,"count":36,"componentType":5125,"type":"SCALAR"},{"bufferView":42,"byteOffset":0,"count":8,"componentType":5126,"type":"VEC3","min":[-1.4500343799591064,4.9500317573547363,4.7850937843322754],"max":[0.14996546506881714,5.2500319480896,4.9350934028625488]},{"bufferView":43,"byteOffset":0,"count":8,"componentType":5126,"type":"VEC2"},{"bufferView":44,"byteOffset":0,"count":36,"componentType":5125,"type":"SCALAR"},{"bufferView":45,"byteOffset":0,"count":8,"componentType":5126,"type":"VEC3","min":[0.034965500235557556,5.0600314140319824,3.7947776317596436],"max":[0.064965501427650452,5.09003210067749,4.7947773933410645]},{"bufferView":46,"byteOffset":0,"count":8,"componentType":5126,"type":"VEC2"},{"bufferView":47,"byteOffset":0,"count":36,"componentType":5125,"type":"SCALAR"},{"bufferView":48,"byteOffset":0,"count":8,"componentType":5126,"type":"VEC3","min":[-1.3650344610214233,5.0600314140319824,3.7947776317596436],"max":[-1.3350344896316528,5.09003210067749,4.7947773933410645]},{"bufferView":49,"byteOffset":0,"count":8,"componentType":5126,"type":"VEC2"},{"bufferView":50,"byteOffset":0,"count":36,"componentType":5125,"type":"SCALAR"},{"bufferView":51,"byteOffset":0,"count":8,"componentType":5126,"type":"VEC3","min":[-1.4000344276428223,5.0267062187194824,4.4888920783996582],"max":[0.099965512752532959,5.123356819152832,4.6312952041625977]},{"bufferView":52,"byteOffset":0,"count":8,"componentType":5126,"type":"VEC2"},{"bufferView":53,"byteOffset":0,"count":36,"componentType":5125,"type":"SCALAR"},{"bufferView":54,"byteOffset":0,"count":8,"componentType":5126,"type":"VEC3","min":[-1.4000344276428223,5.0267066955566406,4.388892650604248],"max":[0.099965512752532959,5.123356819152832,4.5312957763671875]},{"bufferView":55,"byteOffset":0,"count":8,"componentType":5126,"type":"VEC2"},{"bufferView":56,"byteOffset":0,"count":36,"componentType":5125,"type":"SCALAR"},{"bufferView":57,"byteOffset":0,"count":8,"componentType":5126,"type":"VEC3","min":[-1.4000344276428223,5.0267062187194824,4.2888922691345215],"max":[0.099965512752532959,5.123356819152832,4.4312958717346191]},{"bufferView":58,"byteOffset":0,"count":8,"componentType":5126,"type":"VEC2"},{"bufferView":59,"byteOffset":0,"count":36,"componentType":5125,"type":"SCALAR"}],"bufferViews":[{"buffer":0,"byteOffset":0,"byteLength":936,"byteStride":12,"target":34962},{"buffer":0,"byteOffset":936,"byteLength":624,"byteStride":8,"target":34962},{"buffer":0,"byteOffset":1560,"byteLength":1248,"target":34963},{"buffer":0,"byteOffset":2808,"byteLength":96,"byteStride":12,"target":34962},{"buffer":0,"byteOffset":2904,"byteLength":64,"byteStride":8,"target":34962},{"buffer":0,"byteOffset":2968,"byteLength":144,"target":34963},{"buffer":0,"byteOffset":3112,"byteLength":96,"byteStride":12,"target":34962},{"buffer":0,"byteOffset":3208,"byteLength":64,"byteStride":8,"target":34962},{"buffer":0,"byteOffset":3272,"byteLength":144,"target":34963},{"buffer":0,"byteOffset":3416,"byteLength":96,"byteStride":12,"target":34962},{"buffer":0,"byteOffset":3512,"byteLength":64,"byteStride":8,"target":34962},{"buffer":0,"byteOffset":3576,"byteLength":144,"target":34963},{"buffer":0,"byteOffset":3720,"byteLength":96,"byteStride":12,"target":34962},{"buffer":0,"byteOffset":3816,"byteLength":64,"byteStride":8,"target":34962},{"buffer":0,"byteOffset":3880,"byteLength":144,"target":34963},{"buffer":0,"byteOffset":4024,"byteLength":96,"byteStride":12,"target":34962},{"buffer":0,"byteOffset":4120,"byteLength":64,"byteStride":8,"target":34962},{"buffer":0,"byteOffset":4184,"byteLength":144,"target":34963},{"buffer":0,"byteOffset":4328,"byteLength":96,"byteStride":12,"target":34962},{"buffer":0,"byteOffset":4424,"byteLength":64,"byteStride":8,"target":34962},{"buffer":0,"byteOffset":4488,"byteLength":144,"target":34963},{"buffer":0,"byteOffset":4632,"byteLength":96,"byteStride":12,"target":34962},{"buffer":0,"byteOffset":4728,"byteLength":64,"byteStride":8,"target":34962},{"buffer":0,"byteOffset":4792,"byteLength":144,"target":34963},{"buffer":0,"byteOffset":4936,"byteLength":96,"byteStride":12,"target":34962},{"buffer":0,"byteOffset":5032,"byteLength":64,"byteStride":8,"target":34962},{"buffer":0,"byteOffset":5096,"byteLength":144,"target":34963},{"buffer":0,"byteOffset":5240,"byteLength":96,"byteStride":12,"target":34962},{"buffer":0,"byteOffset":5336,"byteLength":64,"byteStride":8,"target":34962},{"buffer":0,"byteOffset":5400,"byteLength":144,"target":34963},{"buffer":0,"byteOffset":5544,"byteLength":96,"byteStride":12,"target":34962},{"buffer":0,"byteOffset":5640,"byteLength":64,"byteStride":8,"target":34962},{"buffer":0,"byteOffset":5704,"byteLength":144,"target":34963},{"buffer":0,"byteOffset":5848,"byteLength":96,"byteStride":12,"target":34962},{"buffer":0,"byteOffset":5944,"byteLength":64,"byteStride":8,"target":34962},{"buffer":0,"byteOffset":6008,"byteLength":144,"target":34963},{"buffer":0,"byteOffset":6152,"byteLength":96,"byteStride":12,"target":34962},{"buffer":0,"byteOffset":6248,"byteLength":64,"byteStride":8,"target":34962},{"buffer":0,"byteOffset":6312,"byteLength":144,"target":34963},{"buffer":0,"byteOffset":6456,"byteLength":96,"byteStride":12,"target":34962},{"buffer":0,"byteOffset":6552,"byteLength":64,"byteStride":8,"target":34962},{"buffer":0,"byteOffset":6616,"byteLength":144,"target":34963},{"buffer":0,"byteOffset":6760,"byteLength":96,"byteStride":12,"target":34962},{"buffer":0,"byteOffset":6856,"byteLength":64,"byteStride":8,"target":34962},{"buffer":0,"byteOffset":6920,"byteLength":144,"target":34963},{"buffer":0,"byteOffset":7064,"byteLength":96,"byteStride":12,"target":34962},{"buffer":0,"byteOffset":7160,"byteLength":64,"byteStride":8,"target":34962},{"buffer":0,"byteOffset":7224,"byteLength":144,"target":34963},{"buffer":0,"byteOffset":7368,"byteLength":96,"byteStride":12,"target":34962},{"buffer":0,"byteOffset":7464,"byteLength":64,"byteStride":8,"target":34962},{"buffer":0,"byteOffset":7528,"byteLength":144,"target":34963},{"buffer":0,"byteOffset":7672,"byteLength":96,"byteStride":12,"target":34962},{"buffer":0,"byteOffset":7768,"byteLength":64,"byteStride":8,"target":34962},{"buffer":0,"byteOffset":7832,"byteLength":144,"target":34963},{"buffer":0,"byteOffset":7976,"byteLength":96,"byteStride":12,"target":34962},{"buffer":0,"byteOffset":8072,"byteLength":64,"byteStride":8,"target":34962},{"buffer":0,"byteOffset":8136,"byteLength":144,"target":34963},{"buffer":0,"byteOffset":8280,"byteLength":96,"byteStride":12,"target":34962},{"buffer":0,"byteOffset":8376,"byteLength":64,"byteStride":8,"target":34962},{"buffer":0,"byteOffset":8440,"byteLength":144,"target":34963}],"buffers":[{"byteLength":8584,"uri":"redroom.bin"}]}