{"asset":{"generator":"3D Builder","version":"2.0"},"scene":0,"scenes":[{"nodes":[0]}],"nodes":[{"children":[1,2,3,4,5,6,7,8,9]},{"mesh":0,"matrix":[1,0,0,0,0,-1.1920928955078125E-7,-0.99999988079071045,0,0,0.99999988079071045,-1.1920928955078125E-7,0,-0.4999656081199646,-3.1823873519897461,4.5361828804016113,1]},{"mesh":1,"matrix":[1,0,0,0,0,-1.1920928955078125E-7,-0.99999988079071045,0,0,0.99999988079071045,-1.1920928955078125E-7,0,-0.4999656081199646,-3.1823873519897461,4.5361828804016113,1]},{"mesh":2,"matrix":[1,0,0,0,0,-1.1920928955078125E-7,-0.99999988079071045,0,0,0.99999988079071045,-1.1920928955078125E-7,0,-0.4999656081199646,-3.1823873519897461,4.5361828804016113,1]},{"mesh":3,"matrix":[1,0,0,0,0,-1.1920928955078125E-7,-0.99999988079071045,0,0,0.99999988079071045,-1.1920928955078125E-7,0,-0.4999656081199646,-3.1823873519897461,4.5361828804016113,1]},{"mesh":4,"matrix":[1,0,0,0,0,-1.1920928955078125E-7,-0.99999988079071045,0,0,0.99999988079071045,-1.1920928955078125E-7,0,-0.4999656081199646,-3.1823873519897461,4.5361828804016113,1]},{"mesh":5,"matrix":[1,0,0,0,0,-1.1920928955078125E-7,-0.99999988079071045,0,0,0.99999988079071045,-1.1920928955078125E-7,0,-0.4999656081199646,-3.1823873519897461,4.5361828804016113,1]},{"mesh":6,"matrix":[1,0,0,0,0,-1.1920928955078125E-7,-0.99999988079071045,0,0,0.99999988079071045,-1.1920928955078125E-7,0,-0.4999656081199646,-3.1823873519897461,4.5361828804016113,1]},{"mesh":7,"matrix":[1,0,0,0,0,-1.1920928955078125E-7,-0.99999988079071045,0,0,0.99999988079071045,-1.1920928955078125E-7,0,-0.4999656081199646,-3.1823873519897461,4.5361828804016113,1]},{"mesh":8,"matrix":[1,0,0,0,0,-1.1920928955078125E-7,-0.99999988079071045,0,0,0.99999988079071045,-1.1920928955078125E-7,0,-0.4999656081199646,-3.1823873519897461,4.5361828804016113,1]}],"meshes":[{"primitives":[{"attributes":{"POSITION":0,"TEXCOORD_0":1},"mode":4,"indices":2,"material":0}]},{"primitives":[{"attributes":{"POSITION":3,"TEXCOORD_0":4},"mode":4,"indices":5,"material":0}]},{"primitives":[{"attributes":{"POSITION":6,"TEXCOORD_0":7},"mode":4,"indices":8,"material":0}]},{"primitives":[{"attributes":{"POSITION":9,"TEXCOORD_0":10},"mode":4,"indices":11,"material":0}]},{"primitives":[{"attributes":{"POSITION":12,"TEXCOORD_0":13},"mode":4,"indices":14,"material":0}]},{"primitives":[{"attributes":{"POSITION":15,"TEXCOORD_0":16},"mode":4,"indices":17,"material":0}]},{"primitives":[{"attributes":{"POSITION":18,"TEXCOORD_0":19},"mode":4,"indices":20,"material":0}]},{"primitives":[{"attributes":{"POSITION":21,"TEXCOORD_0":22},"mode":4,"indices":23,"material":0}]},{"primitives":[{"attributes":{"POSITION":24,"TEXCOORD_0":25},"mode":4,"indices":26,"material":0}]}],"materials":[{"pbrMetallicRoughness":{"baseColorFactor":[1,1,1,1],"metallicFactor":0,"roughnessFactor":0.60000002384185791,"baseColorTexture":{"index":0,"texCoord":0},"metallicRoughnessTexture":{"index":1,"texCoord":0}},"alphaMode":"OPAQUE"}],"textures":[{"source":0,"sampler":0},{"source":1,"sampler":0}],"images":[{"uri":"Colors_baseColor.png"},{"uri":"Colors_metallicRoughness_10852638490067281019.png"}],"samplers":[{"magFilter":9729,"wrapS":10497,"wrapT":10497}],"accessors":[{"bufferView":0,"byteOffset":0,"count":208,"componentType":5126,"type":"VEC3","min":[-0.38904434442520142,3.9470596313476562,2.99377703666687],"max":[1.3889753818511963,5.12530517578125,3.2300939559936523]},{"bufferView":1,"byteOffset":0,"count":208,"componentType":5126,"type":"VEC2"},{"bufferView":2,"byteOffset":0,"count":1044,"componentType":5125,"type":"SCALAR"},{"bufferView":3,"byteOffset":0,"count":64,"componentType":5126,"type":"VEC3","min":[-0.60003447532653809,5.02968692779541,2.8100943565368652],"max":[-0.40003448724746704,5.23618221282959,3.5442683696746826]},{"bufferView":4,"byteOffset":0,"count":64,"componentType":5126,"type":"VEC2"},{"bufferView":5,"byteOffset":0,"count":324,"componentType":5125,"type":"SCALAR"},{"bufferView":6,"byteOffset":0,"count":30,"componentType":5126,"type":"VEC3","min":[1.4099655151367187,4.0139503479003906,2.8100941181182861],"max":[1.5899655818939209,5.0584144592285156,3.5546829700469971]},{"bufferView":7,"byteOffset":0,"count":30,"componentType":5126,"type":"VEC2"},{"bufferView":8,"byteOffset":0,"count":168,"componentType":5125,"type":"SCALAR"},{"bufferView":9,"byteOffset":0,"count":30,"componentType":5126,"type":"VEC3","min":[-0.59003448486328125,4.0361828804016113,2.8100941181182861],"max":[-0.41003447771072388,5.0361824035644531,3.4040393829345703]},{"bufferView":10,"byteOffset":0,"count":30,"componentType":5126,"type":"VEC2"},{"bufferView":11,"byteOffset":0,"count":168,"componentType":5125,"type":"SCALAR"},{"bufferView":12,"byteOffset":0,"count":12,"componentType":5126,"type":"VEC3","min":[-0.50003445148468018,3.9361827373504639,2.810093879699707],"max":[1.4999654293060303,5.1361823081970215,3.010094165802002]},{"bufferView":13,"byteOffset":0,"count":12,"componentType":5126,"type":"VEC2"},{"bufferView":14,"byteOffset":0,"count":60,"componentType":5125,"type":"SCALAR"},{"bufferView":15,"byteOffset":0,"count":138,"componentType":5126,"type":"VEC3","min":[0.98217493295669556,4.13618278503418,3.2062079906463623],"max":[1.3858969211578369,4.9361824989318848,3.3564872741699219]},{"bufferView":16,"byteOffset":0,"count":138,"componentType":5126,"type":"VEC2"},{"bufferView":17,"byteOffset":0,"count":672,"componentType":5125,"type":"SCALAR"},{"bufferView":18,"byteOffset":0,"count":64,"componentType":5126,"type":"VEC3","min":[-0.60003447532653809,3.8361828327178955,2.810093879699707],"max":[-0.40003448724746704,4.0426783561706543,3.5442681312561035]},{"bufferView":19,"byteOffset":0,"count":64,"componentType":5126,"type":"VEC2"},{"bufferView":20,"byteOffset":0,"count":324,"componentType":5125,"type":"SCALAR"},{"bufferView":21,"byteOffset":0,"count":64,"componentType":5126,"type":"VEC3","min":[1.3999655246734619,3.8361828327178955,2.810093879699707],"max":[1.5999655723571777,4.0426783561706543,3.5442681312561035]},{"bufferView":22,"byteOffset":0,"count":64,"componentType":5126,"type":"VEC2"},{"bufferView":23,"byteOffset":0,"count":324,"componentType":5125,"type":"SCALAR"},{"bufferView":24,"byteOffset":0,"count":64,"componentType":5126,"type":"VEC3","min":[1.3999655246734619,5.02968692779541,2.8100943565368652],"max":[1.5999655723571777,5.23618221282959,3.5442683696746826]},{"bufferView":25,"byteOffset":0,"count":64,"componentType":5126,"type":"VEC2"},{"bufferView":26,"byteOffset":0,"count":324,"componentType":5125,"type":"SCALAR"}],"bufferViews":[{"buffer":0,"byteOffset":0,"byteLength":2496,"byteStride":12,"target":34962},{"buffer":0,"byteOffset":2496,"byteLength":1664,"byteStride":8,"target":34962},{"buffer":0,"byteOffset":4160,"byteLength":4176,"target":34963},{"buffer":0,"byteOffset":8336,"byteLength":768,"byteStride":12,"target":34962},{"buffer":0,"byteOffset":9104,"byteLength":512,"byteStride":8,"target":34962},{"buffer":0,"byteOffset":9616,"byteLength":1296,"target":34963},{"buffer":0,"byteOffset":10912,"byteLength":360,"byteStride":12,"target":34962},{"buffer":0,"byteOffset":11272,"byteLength":240,"byteStride":8,"target":34962},{"buffer":0,"byteOffset":11512,"byteLength":672,"target":34963},{"buffer":0,"byteOffset":12184,"byteLength":360,"byteStride":12,"target":34962},{"buffer":0,"byteOffset":12544,"byteLength":240,"byteStride":8,"target":34962},{"buffer":0,"byteOffset":12784,"byteLength":672,"target":34963},{"buffer":0,"byteOffset":13456,"byteLength":144,"byteStride":12,"target":34962},{"buffer":0,"byteOffset":13600,"byteLength":96,"byteStride":8,"target":34962},{"buffer":0,"byteOffset":13696,"byteLength":240,"target":34963},{"buffer":0,"byteOffset":13936,"byteLength":1656,"byteStride":12,"target":34962},{"buffer":0,"byteOffset":15592,"byteLength":1104,"byteStride":8,"target":34962},{"buffer":0,"byteOffset":16696,"byteLength":2688,"target":34963},{"buffer":0,"byteOffset":19384,"byteLength":768,"byteStride":12,"target":34962},{"buffer":0,"byteOffset":20152,"byteLength":512,"byteStride":8,"target":34962},{"buffer":0,"byteOffset":20664,"byteLength":1296,"target":34963},{"buffer":0,"byteOffset":21960,"byteLength":768,"byteStride":12,"target":34962},{"buffer":0,"byteOffset":22728,"byteLength":512,"byteStride":8,"target":34962},{"buffer":0,"byteOffset":23240,"byteLength":1296,"target":34963},{"buffer":0,"byteOffset":24536,"byteLength":768,"byteStride":12,"target":34962},{"buffer":0,"byteOffset":25304,"byteLength":512,"byteStride":8,"target":34962},{"buffer":0,"byteOffset":25816,"byteLength":1296,"target":34963}],"buffers":[{"byteLength":27112,"uri":"bed.bin"}]}