{
  "accessors": [
    {
      "bufferView": 2,
      "componentType": 5126,
      "count": 4,
      "max": [
        68.89763641357422,
        68.89763641357422,
        0.0
      ],
      "min": [
        -68.89763641357422,
        -68.89763641357422,
        0.0
      ],
      "type": "VEC3"
    },
    {
      "bufferView": 2,
      "byteOffset": 48,
      "componentType": 5126,
      "count": 4,
      "max": [
        0.0,
        0.0,
        1.0
      ],
      "min": [
        0.0,
        0.0,
        1.0
      ],
      "type": "VEC3"
    },
    {
      "bufferView": 1,
      "componentType": 5126,
      "count": 4,
      "max": [
        0.33605459332466125,
        0.997201681137085
      ],
      "min": [
        0.005726886913180351,
        0.6668739914894104
      ],
      "type": "VEC2"
    },
    {
      "bufferView": 0,
      "componentType": 5125,
      "count": 6,
      "type": "SCALAR"
    },
    {
      "bufferView": 2,
      "byteOffset": 96,
      "componentType": 5126,
      "count": 204,
      "max": [
        236.62969970703125,
        3.0399017333984375,
        330.3726806640625
      ],
      "min": [
        -208.27142333984375,
        -46.64496612548828,
        0.0
      ],
      "type": "VEC3"
    },
    {
      "bufferView": 2,
      "byteOffset": 2544,
      "componentType": 5126,
      "count": 204,
      "max": [
        1.0,
        1.0,
        1.0
      ],
      "min": [
        -1.0,
        -1.0,
        -1.0
      ],
      "type": "VEC3"
    },
    {
      "bufferView": 1,
      "byteOffset": 32,
      "componentType": 5126,
      "count": 204,
      "max": [
        0.9833438992500305,
        0.9953280687332153
      ],
      "min": [
        0.004249311983585358,
        0.23580195009708405
      ],
      "type": "VEC2"
    },
    {
      "bufferView": 1,
      "byteOffset": 1664,
      "componentType": 5126,
      "count": 204,
      "max": [
        0.9833438992500305,
        0.9953280687332153
      ],
      "min": [
        0.004249311983585358,
        0.23580195009708405
      ],
      "type": "VEC2"
    },
    {
      "bufferView": 0,
      "byteOffset": 24,
      "componentType": 5125,
      "count": 384,
      "type": "SCALAR"
    },
    {
      "bufferView": 2,
      "byteOffset": 4992,
      "componentType": 5126,
      "count": 36,
      "max": [
        236.62969970703125,
        218.4866943359375,
        0.0
      ],
      "min": [
        -204.24481201171875,
        -224.61007690429688,
        0.0
      ],
      "type": "VEC3"
    },
    {
      "bufferView": 2,
      "byteOffset": 5424,
      "componentType": 5126,
      "count": 36,
      "max": [
        0.0,
        0.0,
        1.0
      ],
      "min": [
        0.0,
        0.0,
        1.0
      ],
      "type": "VEC3"
    },
    {
      "bufferView": 1,
      "byteOffset": 3296,
      "componentType": 5126,
      "count": 36,
      "max": [
        0.9984062314033508,
        0.9946052432060242
      ],
      "min": [
        0.009516507387161255,
        0.0025003254413604736
      ],
      "type": "VEC2"
    },
    {
      "bufferView": 1,
      "byteOffset": 3584,
      "componentType": 5126,
      "count": 36,
      "max": [
        0.9984062314033508,
        0.9946052432060242
      ],
      "min": [
        0.009516507387161255,
        0.0025003254413604736
      ],
      "type": "VEC2"
    },
    {
      "bufferView": 0,
      "byteOffset": 1560,
      "componentType": 5125,
      "count": 54,
      "type": "SCALAR"
    },
    {
      "bufferView": 2,
      "byteOffset": 5856,
      "componentType": 5126,
      "count": 192,
      "max": [
        71.36961364746094,
        65.75279998779297,
        159.92105102539063
      ],
      "min": [
        -89.80526733398438,
        -95.21661376953125,
        0.0023040771484375
      ],
      "type": "VEC3"
    },
    {
      "bufferView": 2,
      "byteOffset": 8160,
      "componentType": 5126,
      "count": 192,
      "max": [
        1.0,
        1.0,
        1.0
      ],
      "min": [
        -1.0,
        -1.0,
        -1.0
      ],
      "type": "VEC3"
    },
    {
      "bufferView": 1,
      "byteOffset": 3872,
      "componentType": 5126,
      "count": 192,
      "max": [
        1.0,
        0.9942036867141724
      ],
      "min": [
        0.0,
        0.0
      ],
      "type": "VEC2"
    },
    {
      "bufferView": 1,
      "byteOffset": 5408,
      "componentType": 5126,
      "count": 192,
      "max": [
        1.0,
        0.9942036867141724
      ],
      "min": [
        0.0,
        0.0
      ],
      "type": "VEC2"
    },
    {
      "bufferView": 0,
      "byteOffset": 1776,
      "componentType": 5125,
      "count": 384,
      "type": "SCALAR"
    },
    {
      "bufferView": 2,
      "byteOffset": 10464,
      "componentType": 5126,
      "count": 136,
      "max": [
        0.1785125732421875,
        151.9786834716797,
        152.5153045654297
      ],
      "min": [
        -10.926810264587402,
        -164.47836303710938,
        0.014007568359375
      ],
      "type": "VEC3"
    },
    {
      "bufferView": 2,
      "byteOffset": 12096,
      "componentType": 5126,
      "count": 136,
      "max": [
        1.0,
        0.9999999403953552,
        1.0
      ],
      "min": [
        -1.0,
        -1.0,
        -1.0
      ],
      "type": "VEC3"
    },
    {
      "bufferView": 1,
      "byteOffset": 6944,
      "componentType": 5126,
      "count": 136,
      "max": [
        0.9954438209533691,
        0.9934950470924377
      ],
      "min": [
        0.006877146661281586,
        0.48008421063423157
      ],
      "type": "VEC2"
    },
    {
      "bufferView": 1,
      "byteOffset": 8032,
      "componentType": 5126,
      "count": 136,
      "max": [
        0.9954438209533691,
        0.9934950470924377
      ],
      "min": [
        0.006877146661281586,
        0.48008421063423157
      ],
      "type": "VEC2"
    },
    {
      "bufferView": 1,
      "byteOffset": 9120,
      "componentType": 5126,
      "count": 136,
      "max": [
        0.9954438209533691,
        0.9934950470924377
      ],
      "min": [
        0.006877146661281586,
        0.48008421063423157
      ],
      "type": "VEC2"
    },
    {
      "bufferView": 0,
      "byteOffset": 3312,
      "componentType": 5125,
      "count": 264,
      "type": "SCALAR"
    },
    {
      "bufferView": 2,
      "byteOffset": 13728,
      "componentType": 5126,
      "count": 3765,
      "max": [
        65.64928436279297,
        58.568931579589844,
        63.52705383300781
      ],
      "min": [
        -71.5540771484375,
        -78.36289978027344,
        0.0
      ],
      "type": "VEC3"
    },
    {
      "bufferView": 2,
      "byteOffset": 58908,
      "componentType": 5126,
      "count": 3765,
      "max": [
        1.0,
        1.0,
        1.0
      ],
      "min": [
        -1.0,
        -1.0,
        -1.0
      ],
      "type": "VEC3"
    },
    {
      "bufferView": 1,
      "byteOffset": 10208,
      "componentType": 5126,
      "count": 3765,
      "max": [
        3.47121000289917,
        3.922210693359375
      ],
      "min": [
        0.002350992988795042,
        0.006870698183774948
      ],
      "type": "VEC2"
    },
    {
      "bufferView": 1,
      "byteOffset": 40328,
      "componentType": 5126,
      "count": 3765,
      "max": [
        3.47121000289917,
        3.922210693359375
      ],
      "min": [
        0.002350992988795042,
        0.006870698183774948
      ],
      "type": "VEC2"
    },
    {
      "bufferView": 0,
      "byteOffset": 4368,
      "componentType": 5125,
      "count": 6573,
      "type": "SCALAR"
    },
    {
      "bufferView": 2,
      "byteOffset": 104088,
      "componentType": 5126,
      "count": 8,
      "max": [
        33.19569396972656,
        23.197595596313477,
        1.9056476219247998e-07
      ],
      "min": [
        -34.36383056640625,
        -23.203453063964844,
        -8.959579467773438
      ],
      "type": "VEC3"
    },
    {
      "bufferView": 2,
      "byteOffset": 104184,
      "componentType": 5126,
      "count": 8,
      "max": [
        0.0,
        0.0,
        1.0
      ],
      "min": [
        -2.9074318508293118e-09,
        -1.2267262726461947e-11,
        -1.0
      ],
      "type": "VEC3"
    },
    {
      "bufferView": 1,
      "byteOffset": 70448,
      "componentType": 5126,
      "count": 8,
      "max": [
        0.5662045478820801,
        0.605183482170105
      ],
      "min": [
        0.4445156455039978,
        0.5216054320335388
      ],
      "type": "VEC2"
    },
    {
      "bufferView": 1,
      "byteOffset": 70512,
      "componentType": 5126,
      "count": 8,
      "max": [
        0.5662045478820801,
        0.605183482170105
      ],
      "min": [
        0.4445156455039978,
        0.5216054320335388
      ],
      "type": "VEC2"
    },
    {
      "bufferView": 1,
      "byteOffset": 70576,
      "componentType": 5126,
      "count": 8,
      "max": [
        0.5662045478820801,
        0.605183482170105
      ],
      "min": [
        0.4445156455039978,
        0.5216054320335388
      ],
      "type": "VEC2"
    },
    {
      "bufferView": 0,
      "byteOffset": 30660,
      "componentType": 5125,
      "count": 12,
      "type": "SCALAR"
    }
  ],
  "asset": {
    "extras": {
      "author": "noahm1216 (https://sketchfab.com/noahm1216)",
      "license": "CC-BY-4.0 (http://creativecommons.org/licenses/by/4.0/)",
      "source": "https://sketchfab.com/3d-models/sci-fi-interior-pack-lowpoly-a56f351b52c345e988f4bba7004262f0",
      "title": "Sci-Fi Interior Pack LowPoly"
    },
    "generator": "Sketchfab-12.66.0",
    "version": "2.0"
  },
  "bufferViews": [
    {
      "buffer": 0,
      "byteLength": 30708,
      "name": "floatBufferViews",
      "target": 34963
    },
    {
      "buffer": 0,
      "byteLength": 70640,
      "byteOffset": 30708,
      "byteStride": 8,
      "name": "floatBufferViews",
      "target": 34962
    },
    {
      "buffer": 0,
      "byteLength": 104280,
      "byteOffset": 101348,
      "byteStride": 12,
      "name": "floatBufferViews",
      "target": 34962
    }
  ],
  "buffers": [
    {
      "byteLength": 205628,
      "uri": "scene.bin"
    }
  ],
  "images": [
    {
      "uri": "textures/Walls_Straight_baseColor.png"
    },
    {
      "uri": "textures/Walls_Straight_emissive.png"
    },
    {
      "uri": "textures/Platforms_baseColor.png"
    },
    {
      "uri": "textures/Platforms_emissive.png"
    },
    {
      "uri": "textures/Doorways_baseColor.png"
    },
    {
      "uri": "textures/Doorways_emissive.png"
    },
    {
      "uri": "textures/Doors_baseColor.png"
    },
    {
      "uri": "textures/Crates_00_baseColor.png"
    }
  ],
  "materials": [
    {
      "doubleSided": true,
      "name": "Material_27",
      "pbrMetallicRoughness": {
        "baseColorFactor": [
          0.0,
          0.0,
          0.0,
          1.0
        ],
        "metallicFactor": 0.396921304318747,
        "roughnessFactor": 0.8929713596497552
      }
    },
    {
      "doubleSided": true,
      "emissiveFactor": [
        1.0,
        1.0,
        1.0
      ],
      "emissiveTexture": {
        "index": 1
      },
      "name": "Walls_Straight",
      "pbrMetallicRoughness": {
        "baseColorTexture": {
          "index": 0
        },
        "metallicFactor": 0.7374110014653218,
        "roughnessFactor": 0.8929713596497552
      }
    },
    {
      "doubleSided": true,
      "emissiveFactor": [
        0.03,
        0.03,
        0.03
      ],
      "emissiveTexture": {
        "index": 3
      },
      "name": "Platforms",
      "pbrMetallicRoughness": {
        "baseColorTexture": {
          "index": 2
        },
        "metallicFactor": 0.0,
        "roughnessFactor": 0.8929713596497552
      }
    },
    {
      "doubleSided": true,
      "emissiveFactor": [
        1.0,
        1.0,
        1.0
      ],
      "emissiveTexture": {
        "index": 5
      },
      "name": "Doorways",
      "pbrMetallicRoughness": {
        "baseColorTexture": {
          "index": 4
        },
        "metallicFactor": 0.0,
        "roughnessFactor": 0.8929713596497552
      }
    },
    {
      "doubleSided": true,
      "name": "Doors",
      "pbrMetallicRoughness": {
        "baseColorTexture": {
          "index": 6
        },
        "metallicFactor": 0.0,
        "roughnessFactor": 0.8929713596497552
      }
    },
    {
      "doubleSided": true,
      "name": "Crates_00",
      "pbrMetallicRoughness": {
        "baseColorTexture": {
          "index": 7
        },
        "metallicFactor": 0.0,
        "roughnessFactor": 0.8929713596497552
      }
    }
  ],
  "meshes": [
    {
      "name": "Ceiling_Straight_Material #27_0",
      "primitives": [
        {
          "attributes": {
            "NORMAL": 1,
            "POSITION": 0,
            "TEXCOORD_0": 2
          },
          "indices": 3,
          "material": 0,
          "mode": 4
        }
      ]
    },
    {
      "name": "Walls_6_Walls_Straight_0",
      "primitives": [
        {
          "attributes": {
            "NORMAL": 5,
            "POSITION": 4,
            "TEXCOORD_0": 6,
            "TEXCOORD_1": 7
          },
          "indices": 8,
          "material": 1,
          "mode": 4
        }
      ]
    },
    {
      "name": "FloorCeilings_9_Platforms_0",
      "primitives": [
        {
          "attributes": {
            "NORMAL": 10,
            "POSITION": 9,
            "TEXCOORD_0": 11,
            "TEXCOORD_1": 12
          },
          "indices": 13,
          "material": 2,
          "mode": 4
        }
      ]
    },
    {
      "name": "Doorways_Doorways_0",
      "primitives": [
        {
          "attributes": {
            "NORMAL": 15,
            "POSITION": 14,
            "TEXCOORD_0": 16,
            "TEXCOORD_1": 17
          },
          "indices": 18,
          "material": 3,
          "mode": 4
        }
      ]
    },
    {
      "name": "Doors_Doors_0",
      "primitives": [
        {
          "attributes": {
            "NORMAL": 20,
            "POSITION": 19,
            "TEXCOORD_0": 21,
            "TEXCOORD_1": 22,
            "TEXCOORD_2": 23
          },
          "indices": 24,
          "material": 4,
          "mode": 4
        }
      ]
    },
    {
      "name": "Crates_Crates_00_0",
      "primitives": [
        {
          "attributes": {
            "NORMAL": 26,
            "POSITION": 25,
            "TEXCOORD_0": 27,
            "TEXCOORD_1": 28
          },
          "indices": 29,
          "material": 5,
          "mode": 4
        }
      ]
    },
    {
      "name": "SlidingDoor_Window_Doors_0",
      "primitives": [
        {
          "attributes": {
            "NORMAL": 31,
            "POSITION": 30,
            "TEXCOORD_0": 32,
            "TEXCOORD_1": 33,
            "TEXCOORD_2": 34
          },
          "indices": 35,
          "material": 4,
          "mode": 4
        }
      ]
    }
  ],
  "nodes": [
    {
      "children": [
        1
      ],
      "matrix": [
        1.0,
        0.0,
        0.0,
        0.0,
        0.0,
        2.220446049250313e-16,
        -1.0,
        0.0,
        0.0,
        1.0,
        2.220446049250313e-16,
        0.0,
        0.0,
        0.0,
        0.0,
        1.0
      ],
      "name": "Sketchfab_model"
    },
    {
      "children": [
        2
      ],
      "matrix": [
        1.0,
        0.0,
        0.0,
        0.0,
        0.0,
        0.0,
        1.0,
        0.0,
        0.0,
        -1.0,
        0.0,
        0.0,
        0.0,
        0.0,
        0.0,
        1.0
      ],
      "name": "cfc819a9b73f4372a1e04ea1f5e0edf4.fbx"
    },
    {
      "children": [
        3,
        5,
        7,
        9,
        11,
        13,
        15
      ],
      "name": "RootNode"
    },
    {
      "children": [
        4
      ],
      "matrix": [
        -0.025399999693035785,
        3.835293340973725e-09,
        -3.1106019594754958e-18,
        0.0,
        3.1106033041402833e-18,
        1.1279865793872226e-17,
        -0.025399999693036072,
        0.0,
        -3.835293340973725e-09,
        -0.025399999693035785,
        -5.639932896936113e-18,
        0.0,
        0.0,
        4.062140941619873,
        0.0,
        1.0
      ],
      "name": "Ceiling_Straight"
    },
    {
      "mesh": 0,
      "name": "Ceiling_Straight_Material #27_0"
    },
    {
      "children": [
        6
      ],
      "matrix": [
        0.02539999969303608,
        0.0,
        0.0,
        0.0,
        0.0,
        5.639932896936113e-18,
        -0.02539999969303608,
        0.0,
        0.0,
        0.02539999969303608,
        5.639932896936113e-18,
        0.0,
        -4.26039457321167,
        0.0,
        -1.9678783416748047,
        1.0
      ],
      "name": "Walls_6"
    },
    {
      "mesh": 1,
      "name": "Walls_6_Walls_Straight_0"
    },
    {
      "children": [
        8
      ],
      "matrix": [
        0.02539999969303608,
        0.0,
        0.0,
        0.0,
        0.0,
        5.639932896936113e-18,
        -0.02539999969303608,
        0.0,
        0.0,
        0.02539999969303608,
        5.639932896936113e-18,
        0.0,
        -4.26039457321167,
        0.0,
        3.576031446456909,
        1.0
      ],
      "name": "FloorCeilings_9"
    },
    {
      "mesh": 2,
      "name": "FloorCeilings_9_Platforms_0"
    },
    {
      "children": [
        10
      ],
      "matrix": [
        0.02539999969303608,
        0.0,
        0.0,
        0.0,
        0.0,
        5.639932896936113e-18,
        -0.02539999969303608,
        0.0,
        0.0,
        0.02539999969303608,
        5.639932896936113e-18,
        0.0,
        0.2472306489944458,
        0.0,
        -0.3518607020378113,
        1.0
      ],
      "name": "Doorways"
    },
    {
      "mesh": 3,
      "name": "Doorways_Doorways_0"
    },
    {
      "children": [
        12
      ],
      "matrix": [
        0.02539999969303608,
        0.0,
        0.0,
        0.0,
        0.0,
        5.639932896936113e-18,
        -0.02539999969303608,
        0.0,
        0.0,
        0.02539999969303608,
        5.639932896936113e-18,
        0.0,
        2.1428346633911133,
        0.0,
        2.0137081146240234,
        1.0
      ],
      "name": "Doors"
    },
    {
      "mesh": 4,
      "name": "Doors_Doors_0"
    },
    {
      "children": [
        14
      ],
      "matrix": [
        0.02539999969303608,
        0.0,
        0.0,
        0.0,
        0.0,
        5.639932896936113e-18,
        -0.02539999969303608,
        0.0,
        0.0,
        0.02539999969303608,
        5.639932896936113e-18,
        0.0,
        0.10518854111433029,
        0.0,
        3.4758450984954834,
        1.0
      ],
      "name": "Crates"
    },
    {
      "mesh": 5,
      "name": "Crates_Crates_00_0"
    },
    {
      "children": [
        16
      ],
      "matrix": [
        4.13818533908017e-09,
        0.0,
        0.025399999693035743,
        0.0,
        -1.3221933099974678e-08,
        0.025399999693032638,
        2.1541263934752664e-15,
        0.0,
        -0.025399999693032305,
        -1.3221933099974853e-08,
        4.13818533908017e-09,
        0.0,
        1.8728857040405273,
        2.0308098793029785,
        4.360361576080322,
        1.0
      ],
      "name": "SlidingDoor_Window"
    },
    {
      "mesh": 6,
      "name": "SlidingDoor_Window_Doors_0"
    }
  ],
  "samplers": [
    {
      "magFilter": 9729,
      "minFilter": 9987,
      "wrapS": 10497,
      "wrapT": 10497
    }
  ],
  "scene": 0,
  "scenes": [
    {
      "name": "Sketchfab_Scene",
      "nodes": [
        0
      ]
    }
  ],
  "textures": [
    {
      "sampler": 0,
      "source": 0
    },
    {
      "sampler": 0,
      "source": 1
    },
    {
      "sampler": 0,
      "source": 2
    },
    {
      "sampler": 0,
      "source": 3
    },
    {
      "sampler": 0,
      "source": 4
    },
    {
      "sampler": 0,
      "source": 5
    },
    {
      "sampler": 0,
      "source": 6
    },
    {
      "sampler": 0,
      "source": 7
    }
  ]
}
